# xmcd
#
# Track frame offsets: 
#        150
#        23250
#        39150
#        59100
#        75181
#        93750
#        111088
#        121693
#        142286
#        158707
#        179107
#
# Disc length: 2656 seconds
#
# Revision: 0
# Processed by: cddbd v1.5.2PL0 Copyright (c) Steve Scherf et al.
# Submitted via: ExactAudioCopyFreeDBPlugin 1.0
#
DISCID=820a5e0b
DTITLE=Анна Ширяева - Ягода Солнце
DYEAR=2015
DGENRE=
TTITLE0=Растерянность сов
TTITLE1=Баобаб
TTITLE2=Остановить время
TTITLE3=Жженые нервы
TTITLE4=Ночь
TTITLE5=Выше неба
TTITLE6=Сердце
TTITLE7=Океан
TTITLE8=Знаешь
TTITLE9=Шаман
TTITLE10=Ветер
EXTD=
EXTT0=
EXTT1=
EXTT2=
EXTT3=
EXTT4=
EXTT5=
EXTT6=
EXTT7=
EXTT8=
EXTT9=
EXTT10=
PLAYORDER=
